<svg xmlns="http://www.w3.org/2000/svg" viewBox="0 0 160 60"><linearGradient id="a" gradientUnits="userSpaceOnUse" x1="30.275" y1="4.881" x2="30.275" y2="54.405"><stop offset="0" stop-color="#ffe600"/><stop offset=".517" stop-color="#ffdf00"/><stop offset="1" stop-color="#ffd400"/></linearGradient><path d="M17.695 30c0-6.951 5.637-12.583 12.583-12.583S42.857 23.049 42.857 30s-5.632 12.583-12.579 12.583S17.695 36.951 17.695 30m12.45-25.287C16.246 4.799 5 16.082 5 30c0 13.961 11.315 25.287 25.278 25.287C44.239 55.287 55.55 43.961 55.55 30c0-13.918-11.239-25.201-25.138-25.287h-.267z" fill="url(#a)"/><path d="M137.217 47.578c-.801 0-1.427-.659-1.427-1.473V35.59c0-.81.627-1.46 1.427-1.46.807 0 1.467.65 1.467 1.46v10.516a1.472 1.472 0 0 1-1.467 1.472M137.217 32.704a1.605 1.605 0 0 1-1.604-1.619c0-.896.713-1.645 1.604-1.645.898 0 1.647.75 1.647 1.645 0 .9-.749 1.619-1.647 1.619M116.781 36.606c-2.356 0-4.597 1.279-4.597 3.858v5.641c0 .814-.648 1.473-1.46 1.473-.796 0-1.46-.659-1.46-1.473V35.59c0-.81.629-1.46 1.44-1.46.803 0 1.479.65 1.479 1.46v.637c1.195-1.593 2.539-2.222 4.597-2.222.719 0 1.285.568 1.285 1.288a1.293 1.293 0 0 1-1.284 1.313M88.642 47.578c-.803 0-1.462-.629-1.462-1.434v-5.942c0-2.046-1.133-3.596-3.277-3.596-2.211 0-3.462 1.697-3.462 3.617v5.921c0 .805-.629 1.434-1.434 1.434-.803 0-1.46-.629-1.46-1.434V35.628c0-.814.629-1.499 1.432-1.499s1.462.685 1.462 1.499v.65c.863-1.309 2.534-2.274 4.265-2.274 3.398 0 5.368 2.601 5.368 6.098v6.042a1.417 1.417 0 0 1-1.432 1.434M122.401 27.192c-1.04 1.162-3.182 2.162-5.084 2.162a6.813 6.813 0 0 1-6.834-6.843 6.817 6.817 0 0 1 6.834-6.834c1.662 0 3.038.353 4.41 1.486.269.25.45.637.45 1.029 0 .232-.088.499-.271.732a1.241 1.241 0 0 1-.954.486c-.267 0-.568-.086-.806-.267a4.7 4.7 0 0 0-2.829-.926c-2.39 0-3.97 1.968-3.97 4.293 0 2.343 1.58 4.311 3.97 4.311 1.426 0 2.442-.568 3.34-1.374.239-.22.501-.302.775-.302.329 0 .68.125.923.383.211.215.317.487.343.754.041.548-.297.91-.297.91zM93.348 18.33c-2.356 0-4.593 1.279-4.593 3.846v5.654c0 .801-.653 1.464-1.458 1.464a1.474 1.474 0 0 1-1.466-1.464V17.31c0-.814.631-1.464 1.434-1.464.807 0 1.49.65 1.49 1.464v.624c1.195-1.58 2.541-2.205 4.593-2.205.719 0 1.288.56 1.288 1.274 0 .724-.568 1.327-1.288 1.327M131.371 26.869h-.691c-2.061 0-2.532-1.236-2.532-2.941V18.11h3.215c.659 0 1.197-.568 1.197-1.219 0-.663-.538-1.206-1.197-1.206h-3.215v-4.031c0-.81-.689-1.438-1.497-1.438-.803 0-1.427.628-1.427 1.438V23.82c0 3.105 1.578 5.465 5.131 5.465h1.016c.652 0 1.188-.573 1.188-1.223a1.19 1.19 0 0 0-1.188-1.193zM108.261 22.459c0-3.854-2.801-6.783-6.561-6.783-3.785 0-6.739 3.049-6.739 6.834a6.808 6.808 0 0 0 6.828 6.843c2.088 0 4.207-.883 5.458-2.226.269-.271.415-.633.415-.969 0-.232-.082-.474-.237-.68a1.23 1.23 0 0 0-.956-.474c-.261 0-.506.056-.719.267-1.038 1.012-2.351 1.645-3.876 1.645-2.147 0-3.753-1.494-3.902-3.506h9.216c.572.001 1.073-.378 1.073-.951zm-10.236-1.106c.306-1.912 1.675-3.23 3.675-3.23 1.968 0 3.4 1.412 3.667 3.23h-7.342zM74.818 40.753c0-3.854-2.801-6.783-6.562-6.783-3.781 0-6.741 3.04-6.741 6.839a6.818 6.818 0 0 0 6.834 6.842c2.084 0 4.203-.887 5.46-2.23.267-.276.414-.633.414-.96 0-.241-.086-.482-.232-.689a1.229 1.229 0 0 0-.956-.474c-.276 0-.512.06-.721.267-1.042 1.008-2.353 1.645-3.876 1.645-2.144 0-3.757-1.494-3.904-3.505h9.216c.562 0 1.068-.384 1.068-.952zm-10.232-1.111c.304-1.912 1.673-3.217 3.669-3.217 1.968 0 3.408 1.4 3.669 3.217h-7.338zM106.022 40.753c0-3.854-2.803-6.783-6.558-6.783-3.79 0-6.739 3.04-6.739 6.839a6.811 6.811 0 0 0 6.825 6.842c2.089 0 4.207-.887 5.458-2.23.272-.276.424-.633.424-.96 0-.241-.095-.482-.243-.689a1.223 1.223 0 0 0-.956-.474c-.269 0-.506.06-.711.267-1.053 1.008-2.362 1.645-3.878 1.645-2.151 0-3.764-1.494-3.91-3.505h9.214c.566 0 1.074-.384 1.074-.952zm-10.225-1.111c.291-1.912 1.664-3.217 3.667-3.217 1.968 0 3.398 1.4 3.671 3.217h-7.338zM155 40.753c0-3.854-2.804-6.783-6.558-6.783-3.79 0-6.748 3.04-6.748 6.839a6.819 6.819 0 0 0 6.834 6.842c2.084 0 4.205-.887 5.458-2.23a1.42 1.42 0 0 0 .413-.96c0-.241-.084-.482-.235-.689a1.21 1.21 0 0 0-.956-.474c-.271 0-.506.06-.715.267-1.042 1.008-2.358 1.645-3.88 1.645-2.147 0-3.755-1.494-3.908-3.505h9.222c.569 0 1.073-.384 1.073-.952zm-10.23-1.111c.299-1.912 1.667-3.217 3.671-3.217 1.964 0 3.398 1.4 3.669 3.217h-7.34zM80.385 29.294c-.807 0-1.434-.663-1.434-1.464V17.31c0-.814.627-1.464 1.434-1.464.801 0 1.46.65 1.46 1.464v10.52c-.001.8-.66 1.464-1.46 1.464M80.385 14.39a1.602 1.602 0 0 1-1.613-1.615c0-.887.715-1.636 1.613-1.636.893 0 1.636.75 1.636 1.636 0 .904-.743 1.615-1.636 1.615M130.512 34.156c-.736 0-1.337.538-1.438 1.244a6.681 6.681 0 0 0-3.884-1.244 6.712 6.712 0 0 0 0 13.422 6.658 6.658 0 0 0 3.891-1.253v.065c0 2.351-1.339 4.082-4.287 4.082-1.292 0-2.043-.121-2.806-.34a1.512 1.512 0 0 0-.426-.06c-.682 0-1.233.547-1.233 1.228 0 .534.329.982.792 1.158.745.34 2.444.512 3.674.512 4.67 0 7.101-2.946 7.174-6.692l.002.008v-10.68a1.459 1.459 0 0 0-1.459-1.45zm-5.323 10.778a4.08 4.08 0 0 1-4.07-4.065 4.078 4.078 0 0 1 4.07-4.074 4.078 4.078 0 0 1 4.07 4.074 4.078 4.078 0 0 1-4.07 4.065zM73.442 8.994c-.805 0-1.434.65-1.434 1.456v6.705a6.631 6.631 0 0 0-3.798-1.188c-3.69 0-6.696 3.001-6.696 6.692a6.704 6.704 0 0 0 6.696 6.696c3.673 0 6.66-2.98 6.69-6.644V10.449c0-.805-.652-1.455-1.458-1.455zm-5.232 17.63a3.972 3.972 0 0 1-3.979-3.966 3.984 3.984 0 0 1 3.979-3.979 3.981 3.981 0 0 1 3.975 3.979 3.97 3.97 0 0 1-3.975 3.966z" fill="#707173"/></svg>