<svg width="32" height="32" fill="none" xmlns="http://www.w3.org/2000/svg"><path d="M17.62 10.112c-.996.793-1.95 1.843-2.504 2.992-1.138 2.36-.507 4.53-.019 5.938.664 1.917 2.01 2.885 3.613 3.592 2.286 1.009 5.16 1.076 7.77.403.919-.238 2.347-.732 2.659-1.193.337-.498.39-1.463-.335-1.887-.707-.413-.775-.098-2.881.37-1.466.325-3.067.382-4.989-.448-1.212-.523-2.033-1.326-2.313-2.424-.804-3.148.933-4.316 1.272-4.53l-2.274-2.813z" fill="url(#paint0_linear)"/><path d="M20.015 13.82c-.905-.12-3.56-.402-6.338-.895-4.298-.762-9.352-1.82-10.965-1.933C-.393 10.775-.91 14.81 1.568 15.5c1.404.39 5.267-.02 6.206 1.834.286.565 1.042 2.694 1.9 5.33.335 1.034 3.068.871 2.56-1.331-.29-1.258-.95-4.655-.95-4.655s7.837.832 8.475.887l.256-3.745z" fill="url(#paint1_linear)"/><path d="M24.142 11.745c.996.026 2.727.282 3.508.804l4.349.857c.041-2.414-1.283-3.713-2.766-4.462-1.126-.568-2.706-1.031-5.077-.93-2.267.097-4.65.593-6.551 2.108l2.272 2.818c1.072-.676 2.419-1.244 4.265-1.195z" fill="url(#paint2_linear)"/><path d="M27.58 12.504s.23.147.329.238c.474.433.63.95-.807 1.188l1.137 3.515c2.587-.693 3.728-2.22 3.76-4.083l-4.419-.858z" fill="url(#paint3_linear)"/><path d="M27.145 13.924c-1.274.21-3.744.347-7.15-.104l-.255 3.744c5.53.478 7.475.152 8.542-.134l-1.137-3.506z" fill="url(#paint4_linear)"/><defs><linearGradient id="paint0_linear" x1="18.045" y1="12.697" x2="26.365" y2="21.733" gradientUnits="userSpaceOnUse"><stop stop-color="#0186F5"/><stop offset=".132" stop-color="#0186F5"/><stop offset=".315" stop-color="#35C2B0"/><stop offset=".667" stop-color="#AAD825"/><stop offset="1" stop-color="#FED700"/></linearGradient><linearGradient id="paint1_linear" x1="11.215" y1="22.348" x2="11.283" y2="16.677" gradientUnits="userSpaceOnUse"><stop stop-color="#FF7F00"/><stop offset="1" stop-color="#FE0201"/></linearGradient><linearGradient id="paint2_linear" x1="18.267" y1="11.281" x2="27.452" y2="11.458" gradientUnits="userSpaceOnUse"><stop stop-color="#0186F5"/><stop offset=".198" stop-color="#0186F5"/><stop offset="1" stop-color="#3156FD"/></linearGradient><linearGradient id="paint3_linear" x1="27.955" y1="14.738" x2="28.801" y2="13.068" gradientUnits="userSpaceOnUse"><stop stop-color="#8434D5"/><stop offset=".854" stop-color="#3156FD"/><stop offset="1" stop-color="#3156FD"/></linearGradient><linearGradient id="paint4_linear" x1="27.012" y1="15.67" x2="19.96" y2="16.004" gradientUnits="userSpaceOnUse"><stop stop-color="#8434D5"/><stop offset="1" stop-color="#FE0201"/></linearGradient></defs></svg>